<svg width="542" height="400" viewBox="0 0 542 400" fill="none" xmlns="http://www.w3.org/2000/svg">
<path d="M154.908 73.8602C161.141 72.9038 150.093 88.3704 138.617 93.2841C127.141 98.1978 120.908 91.1735 106.365 96.5159C99.9669 98.8573 117.94 77.2569 129.614 72.2773C141.288 67.2976 140.299 76.0697 154.941 73.8602H154.908Z" fill="#D2B589"/>
<path d="M71.1775 64.362C84.9292 40.0244 108.343 14.8953 138.617 6.61792C178.949 -4.39665 203.088 -0.109543 233.098 8.20085C246.883 12.2901 259.25 19.3473 271.781 26.4375C280.652 32.5714 290.15 33.7586 300.868 34.9788C310.794 36.133 324.908 39.167 334.966 40.1563C329.294 41.1456 330.514 41.6403 317.851 44.0477C296.91 48.038 294.833 47.8071 282.796 48.0709C273.595 48.2688 263.866 44.1466 255.424 40.9807C247.872 38.3755 240.32 35.7702 232.538 34.0224C193.525 27.9875 166.054 32.6703 121.37 46.0263" fill="#D2B589"/>
<path d="M13.1694 195.219C-32.4718 152.942 52.4129 32.2105 87.2704 123.394C102.242 132.925 169.946 113.6 158.239 140.312C152.665 142.818 101.847 143.28 99.9669 144.994L116.818 156.372L49.9066 164.814C44.4983 163.528 22.9968 182.49 17.1597 170.75C17.1597 170.75 12.345 174.18 13.1365 195.252L13.1694 195.219Z" fill="#D2B589"/>
<path d="M327.315 94.009C302.384 69.6714 255.853 66.6045 223.073 72.2107L327.315 94.009Z" fill="#D2B589"/>
<path d="M291.369 136.914L295.293 141.168L292.325 136.189C288.566 129.89 283.784 124.218 278.112 119.337C260.931 104.233 235.67 99.6163 215.289 107.927L215.619 109.081C215.949 109.015 216.279 108.982 216.641 108.916L290.545 136.09C290.808 136.387 291.072 136.65 291.369 136.947V136.914Z" fill="#D2B589"/>
<path d="M222.974 136.583C214.202 131.372 202.759 127.745 192.898 131.999L239.595 153.731C235.67 146.707 229.701 140.903 222.941 136.583H222.974Z" fill="#D2B589"/>
<path d="M536.46 23.0408C540.319 48.5656 541.935 73.9915 541.44 99.1205C541.209 111.058 540.484 122.897 539.329 134.638C539.165 136.418 538.241 138.034 536.823 139.123C529.304 144.828 521.456 150.401 513.244 155.809C495.601 167.45 476.507 178.333 456.127 188.193C433.537 199.175 409.364 208.936 383.905 217.181C345.091 229.745 306.638 237.693 269.934 241.321C265.087 241.782 260.305 242.211 255.523 242.541C264.361 250.719 272.671 259.491 280.421 268.857C281.641 268.89 282.895 268.956 284.115 268.989C308.122 269.78 332.988 268.989 358.348 266.417C409.364 261.305 456.951 249.697 498.767 233.373C500.284 232.779 501.768 232.186 503.219 231.625C514.728 226.975 526.204 238.32 521.851 249.928C514.332 270.11 505.362 289.666 495.073 308.496C494.216 310.046 492.765 311.2 491.05 311.629C489.038 312.157 487.027 312.651 484.982 313.146C455.962 320.17 423.71 323.699 389.808 322.908C365.075 322.347 341.298 319.511 319.137 314.729C316.07 314.069 313.036 313.377 310.035 312.651C313.894 319.775 317.488 327.129 320.786 334.681C324.479 335.868 328.206 336.989 331.965 338.077C340.869 340.65 350.037 342.925 359.403 344.904C384.961 350.279 410.024 352.95 433.834 353.214C445.772 353.313 452.433 367.098 444.98 376.397C439.077 383.751 432.91 390.941 426.546 397.899C424.93 399.68 422.423 400.405 420.115 399.779C395.579 393.051 370.384 383.323 345.42 370.527C345.42 370.527 345.156 370.395 345.025 370.329C341.826 368.681 338.693 367.032 335.56 365.317C334.076 364.426 332.625 363.536 331.174 362.613C330.481 362.184 329.756 361.722 329.063 361.294C327.777 360.469 326.458 359.645 325.205 358.787L255.193 295.008L121.6 173.32C140.233 177.311 158.371 183.115 175.684 190.634C177.234 189.677 179.114 188.754 181.356 187.798L199.131 182.488L281.509 157.887C281.509 157.887 281.575 157.887 281.641 157.854C304.198 150.566 325.832 142.189 346.41 132.89C367.351 123.458 387.203 113.07 405.737 101.957C412.398 97.9663 418.862 93.91 425.193 89.7548C435.911 82.6976 446.134 75.3765 455.83 67.8576C477.1 51.3358 495.865 33.8246 511.661 15.7198C519.642 6.55198 534.68 11.1029 536.493 23.1068L536.46 23.0408Z" fill="#D2B589"/>
</svg>
